<svg id="Layer_1" data-name="Layer 1" xmlns="http://www.w3.org/2000/svg" xmlns:xlink="http://www.w3.org/1999/xlink" viewBox="0 0 1141.76 946.39" width="406" height="306" class="illustration styles_illustrationTablet__1DWOa"><defs><linearGradient id="linear-gradient" x1="480.03" y1="543.05" x2="808.15" y2="615.53" gradientUnits="userSpaceOnUse"><stop offset="0.01"></stop><stop offset="0.13" stop-opacity="0.69"></stop><stop offset="0.25" stop-opacity="0.32"></stop><stop offset="1" stop-opacity="0"></stop></linearGradient></defs><title>1</title><path d="M1215.39,850.81C1212.31,884.58,1197,919,1181,955.64c-29.33,67.25-78.63,129.64-152.17,149.7-105.32,28.72-400.89-69.79-569.43-20.24-339,99.65-401.08-167.89-382.14-240.16,13.2-50.37,29.49-100.89,29.92-153.49.61-74.4-30.13-145.23-21.44-219.57,8.46-72.31,27.22-145.86,70.63-205.57,41.11-56.53,110.12-81.8,177-93.41,121.32-21.07,249.11-3.14,360,50.49,56.13,27.17,108.86,64.15,145.34,114.72,37.4,51.83,55.71,114.74,85.79,171.14a456.49,456.49,0,0,0,133.15,153.3c40.59,29.63,86.51,52.88,120.89,89.55C1209.69,785.42,1218.39,817.82,1215.39,850.81Z" transform="translate(-74.18 -164.3)" fill="#00ffff" opacity="0.18" style="isolation: isolate;"></path><path d="M1091.81,326V895.46a36.67,36.67,0,0,1-36.68,36.69H284.76a36.69,36.69,0,0,1-36.68-36.69V326a36.68,36.68,0,0,1,36.68-36.68h770.37A36.66,36.66,0,0,1,1091.81,326Z" transform="translate(-74.18 -164.3)" fill="#00ffff" opacity="0.18" style="isolation: isolate;"></path><path d="M1080.09,326V895.46a36.67,36.67,0,0,1-36.68,36.69H273a36.69,36.69,0,0,1-36.68-36.69V326A36.68,36.68,0,0,1,273,289.32h770.37A36.66,36.66,0,0,1,1080.09,326Z" transform="translate(-74.18 -164.3)" fill="#fff"></path><rect x="577.5" y="219.87" width="304.54" height="220.98" rx="14.29" fill="#00ffff" opacity="0.18" style="isolation: isolate;"></rect><polygon points="591.59 312.32 640.13 267.15 707.1 347.84 765.69 296.6 789.97 317.46 844.37 244.71 872 278.02 872 424.11 591.59 424.11 591.59 312.32" fill="#fff"></polygon><path d="M1080.09,326v1H236.36v-1A36.68,36.68,0,0,1,273,289.32h770.37A36.66,36.66,0,0,1,1080.09,326Z" transform="translate(-74.18 -164.3)" fill="#00ffff"></path><rect x="336.29" y="503.09" width="110.49" height="359.07" fill="#473f47"></rect><rect x="446.78" y="574.13" width="110.49" height="288.03" fill="#473f47"></rect><rect x="557.27" y="645.17" width="110.49" height="216.99" fill="#473f47"></rect><rect x="667.76" y="716.21" width="110.49" height="145.96" fill="#473f47"></rect><rect x="778.25" y="787.24" width="110.49" height="74.92" fill="#473f47"></rect><path d="M350.19,327V932.15H273a36.69,36.69,0,0,1-36.68-36.69V327Z" transform="translate(-74.18 -164.3)" fill="#d7d9e1"></path><path d="M608.31,650.85a120,120,0,0,1-13,17.21c-7.31,8-15.66,15-23.88,22-4.16,3.56-8.3,7.15-12.27,10.92-3.29,3.12-7.5,5.27-8.32,10.11-.48,2.87,0,6.31-2.15,8.24a5.28,5.28,0,0,1-5.79.39,12.13,12.13,0,0,1-4.33-4.3,7.38,7.38,0,0,1-1-2.1,5.74,5.74,0,0,1,.06-2.54c.89-4,4-7,6.69-10.1a68.19,68.19,0,0,0,6.54-8.77c1.65-2.64,3.59-4.37,5.65-6.69q7.92-8.94,15.86-17.86c5.68-6.41,11.52-13.08,14.11-21.25,1-3.12,1.52-6.48,3.37-9.18,4.07-5.94,13.56-6.83,19.78-4C617.11,636.38,611.34,646,608.31,650.85Z" transform="translate(-74.18 -164.3)" fill="#ffbbab"></path><path d="M575.45,639.12s-4.13,35.92,0,55.33a155.08,155.08,0,0,1,3.21,36.38c-1.35,1.88,0,4.65,1.92,5.91s4.39,1.38,6.7,1.46l9.44.34c1.12,0,2.39,0,3.14-.81,1.22-1.35,0-3.59-1.67-4.38s-3.58-.85-5.13-1.79c-2.95-1.78-3.34-5.83-3.39-9.28l-.25-15.06c-.35-21.62-.7-43.36,2.6-64.73a7.21,7.21,0,0,0,.05-3c-.47-1.78-2.2-2.87-3.79-3.8a15.51,15.51,0,0,0-5.68-2.35c-2.05-.26-4.37.48-5.35,2.29" transform="translate(-74.18 -164.3)" fill="#ffbbab"></path><path d="M626,506l5.3,2.91c2.54,1.4,5.48,4,8.1,3,4.6-1.78,9.3-6.34,13.32-9.2q6.6-4.68,13.07-9.54a11,11,0,0,0,3-2.87c1.3-2.13,1.32-5.29,3.56-6.39l1.27,5.54,7-3.53a4.86,4.86,0,0,1,2.88-.77c1.86.31,2.67,2.61,2.5,4.49-.56,6.36-7.07,8.38-12.23,10a20.83,20.83,0,0,0-4,1.46,15.57,15.57,0,0,0-2.72,2.06c-4.56,4-9.16,8-12.68,12.91a65.28,65.28,0,0,1-5.36,6.79c-1.86,2-3.36,4.38-6.06,5.38a10.78,10.78,0,0,1-5.75.21c-6.9-1.28-13.27-6-18.68-10.23-.59-.46-1.24-1.22-.86-1.87a1.7,1.7,0,0,1,.87-.6,13.5,13.5,0,0,0,5.43-3.73C625.24,510.26,626.51,508.19,626,506Z" transform="translate(-74.18 -164.3)" fill="#ffbbab"></path><path d="M613.24,471c-1.13,1.76-2.87,3.33-5,3.43a2.48,2.48,0,0,0-1.54.33,1.94,1.94,0,0,0-.37,1.61l.56,7.07a2,2,0,0,1-1.92,2.63c-2.57.7-5.74,1.26-7.55-.7a7.27,7.27,0,0,1-1.47-3.89c-1.38-8.09-2.68-16.35-1.45-24.46.75-4.91,2.72-10.06,7-12.62,4.89-3,17.49-3.86,17,4.37-.21,3.37-1.2,6.52-1.05,9.95C617.62,463.52,615.82,467,613.24,471Z" transform="translate(-74.18 -164.3)" fill="#ffbbab"></path><path d="M618.71,442.16c.33,1.49.6,3.12-.1,4.47a5.69,5.69,0,0,1-3.73,2.5c-3.69,1-7.66.75-11.31,1.92a3.08,3.08,0,0,0-1.54.9,3.33,3.33,0,0,0-.54,1.72,74.29,74.29,0,0,0,.67,21.52,34.58,34.58,0,0,1-20.44-.22,5.32,5.32,0,0,1-4.18-4.38,37.92,37.92,0,0,1,3.64-30.39A15.14,15.14,0,0,1,594,431.85C603,430.66,616.39,431.58,618.71,442.16Z" transform="translate(-74.18 -164.3)" fill="#fc682d"></path><path d="M610.6,558.62c-.52,17.55,5.85,34,10.65,50.92,2.1,7.36,4.44,14.9,3.65,22.47a4.32,4.32,0,0,1,0,.62c-23.13,6.66-48.51,10-70.9,1.1a191.94,191.94,0,0,0,3.77-35.93c0-4.75-.1-9.58,1-14.23,1.81-8,7-14.76,12.34-20.94,2-2.29,4.11-4.63,5-7.54.84-2.68.58-5.54.31-8.31a163.74,163.74,0,0,1-.64-27.29A66.13,66.13,0,0,1,582,495.76a31.8,31.8,0,0,1,6.18-9.19,16,16,0,0,1,9.82-4.78,10.62,10.62,0,0,1,9.62,4.47c5.63,8.69,15,10.65,21.84,18.43a2.6,2.6,0,0,1,.79,1.41,2.77,2.77,0,0,1-.6,1.62q-3.61,5.73-7.21,11.46a22.4,22.4,0,0,1-2.53,3.44s0,0,0,0c-.86.89-1.88,1.6-2.74,2.49-2.44,2.53-3.3,6.15-3.94,9.62A154.08,154.08,0,0,0,610.6,558.62Z" transform="translate(-74.18 -164.3)" fill="#00ffff"></path><path d="M603.43,734.12l-2.34-.75a21.93,21.93,0,0,0-5.79-1.28,2,2,0,0,0-1,.14,2.33,2.33,0,0,0-.88,1A4.59,4.59,0,0,1,592,735c-1.14.73-2.63.4-3.94,0a17.58,17.58,0,0,1-4-1.43c-1.23-.69-2.29-1.67-3.56-2.28a2.59,2.59,0,0,0-2.29-.17,3.25,3.25,0,0,0-.93.88,5.76,5.76,0,0,0-1.13,1.92,5.5,5.5,0,0,0,0,2.14,3.7,3.7,0,0,0,.53,1.79c.64.87,1.87,1,3,1.09l11.42.71c3.58.22,7.16.45,10.74.4a24,24,0,0,0,5.85-.62c.26-.07.57-.19.65-.45a.83.83,0,0,0-.1-.55c-1.1-2.4-3.65-3.77-6.14-4.63" transform="translate(-74.18 -164.3)" fill="#00ffff"></path><path d="M539.1,707.79c.31,1.15,0,2.39.3,3.54a6.87,6.87,0,0,0,1.45,2.43l2.77,3.42a4.74,4.74,0,0,0,1.11,1.08c1.1.66,2.51.26,3.73-.13a1.17,1.17,0,0,1,1,0,1.13,1.13,0,0,1,.35.65l1.6,5.54c.21.75,1.51,6.43,1.08,7.08a2.25,2.25,0,0,1-.85.67c-2.54,1.28-6.87-4.44-9-6.3s-3.46-4.51-4.6-7.12q-.91-2.1-1.74-4.23a13.44,13.44,0,0,1-1.29-4.12,2.12,2.12,0,0,1,1.17-1.92C536.82,708,538.77,706.55,539.1,707.79Z" transform="translate(-74.18 -164.3)" fill="#00ffff"></path><path d="M624.9,632a12.27,12.27,0,0,1-10.17-1c-5.3-3.32-7.4-10-8.38-16.12-2.1-13.53-.86-28.22-8-39.89-2.18-3.56-5.21-7.16-4.75-11.32.45-4.34,4.51-7.28,6.85-11,2.58-4,3-9,3.48-13.75.82-8.93,1.6-17.88,2.41-26.81,0,2.24,9.89,7,13.49,10.5-.86.89-1.88,1.6-2.74,2.49-2.44,2.53-3.3,6.15-3.94,9.62a154.08,154.08,0,0,0-2.58,23.87c-.52,17.55,5.85,34,10.65,50.92C623.35,616.9,625.69,624.44,624.9,632Z" transform="translate(-74.18 -164.3)" fill="url(#linear-gradient)"></path><polygon points="706.93 349.96 640 269.31 592.6 313.41 590.57 311.24 640.27 264.99 707.27 345.71 765.68 294.63 789.73 315.3 844.31 242.3 873.14 277.07 870.85 278.97 844.43 247.1 790.21 319.63 765.7 298.57 706.93 349.96" fill="#00ffff"></polygon><circle cx="639.7" cy="267.29" r="6.06" fill="#00ffff"></circle><circle cx="591.59" cy="310.83" r="6.06" fill="#00ffff"></circle><circle cx="708.11" cy="347.43" r="6.06" fill="#00ffff"></circle><circle cx="765.69" cy="296.6" r="6.06" fill="#00ffff"></circle><circle cx="789.97" cy="317.47" r="6.06" fill="#00ffff"></circle><circle cx="844.37" cy="244.7" r="6.06" fill="#00ffff"></circle><circle cx="872" cy="278.02" r="6.06" fill="#00ffff"></circle><rect x="351.35" y="229.06" width="88.58" height="88.58" fill="#00ffff"></rect><rect x="351.35" y="363.81" width="88.58" height="88.58" fill="#00ffff"></rect><rect x="363.49" y="242.3" width="13.39" height="64.34" fill="#fff"></rect><rect x="384" y="263.04" width="13.39" height="43.6" fill="#fff"></rect><rect x="404.92" y="278.02" width="13.39" height="28.62" fill="#fff"></rect><circle cx="393.21" cy="411.14" r="29.72" fill="none" stroke="#fff" stroke-miterlimit="10" stroke-width="2.97"></circle><line x1="393.21" y1="381.42" x2="393.21" y2="389.51" fill="none" stroke="#fff" stroke-miterlimit="10" stroke-width="2.97"></line><line x1="393.21" y1="432.76" x2="393.21" y2="440.85" fill="none" stroke="#fff" stroke-miterlimit="10" stroke-width="2.97"></line><line x1="422.92" y1="411.14" x2="414.83" y2="411.14" fill="none" stroke="#fff" stroke-miterlimit="10" stroke-width="2.97"></line><line x1="371.58" y1="411.14" x2="363.49" y2="411.14" fill="none" stroke="#fff" stroke-miterlimit="10" stroke-width="2.97"></line><polyline points="393.21 397.05 393.21 412.95 409.95 420.49" fill="none" stroke="#fff" stroke-miterlimit="10" stroke-width="2.97"></polyline><rect x="199.01" y="317.64" width="59.43" height="5.88" fill="#fff"></rect><rect x="185.2" y="300.24" width="73.24" height="7.48" fill="#fff"></rect><rect x="199.01" y="387.18" width="59.43" height="5.88" fill="#fff"></rect><rect x="185.2" y="369.78" width="73.24" height="7.48" fill="#fff"></rect><rect x="199.01" y="456.72" width="59.43" height="5.88" fill="#fff"></rect><rect x="185.2" y="439.32" width="73.24" height="7.48" fill="#fff"></rect><rect x="199.01" y="526.26" width="59.43" height="5.88" fill="#fff"></rect><rect x="185.2" y="508.86" width="73.24" height="7.48" fill="#fff"></rect></svg>