<svg version="1.2" xmlns="http://www.w3.org/2000/svg" viewBox="0 0 824 597" width="824" height="597">
	<title>Message</title>
	<defs>
		<linearGradient id="g1" x1="184.1" y1="186.6" x2="188" y2="176.2" gradientUnits="userSpaceOnUse">
			<stop offset=".4" stop-color="#00272e"/>
			<stop offset=".8" stop-color="#3f80a1" stop-opacity=".3"/>
			<stop offset="1" stop-color="#69b9eb" stop-opacity="0"/>
		</linearGradient>
		<linearGradient id="g2" x1="444.7" y1="31.6" x2="323.7" y2="461.6" gradientUnits="userSpaceOnUse">
			<stop offset="0" stop-color="#000000" stop-opacity="0"/>
			<stop offset=".9" stop-color="#000000" stop-opacity=".8"/>
			<stop offset="1" stop-color="#000000"/>
		</linearGradient>
		<linearGradient id="g3" x1="405.8" y1="149.8" x2="332.8" y2="499.8" gradientUnits="userSpaceOnUse">
			<stop offset="0" stop-color="#000000" stop-opacity="0"/>
			<stop offset=".9" stop-color="#000000" stop-opacity=".8"/>
			<stop offset="1" stop-color="#000000"/>
		</linearGradient>
		<linearGradient id="g4" x1="412.5" y1="151.2" x2="339.5" y2="501.2" gradientUnits="userSpaceOnUse">
			<stop offset="0" stop-color="#000000" stop-opacity="0"/>
			<stop offset=".9" stop-color="#000000" stop-opacity=".8"/>
			<stop offset="1" stop-color="#000000"/>
		</linearGradient>
		<linearGradient id="g5" x1="421" y1="153" x2="348" y2="503" gradientUnits="userSpaceOnUse">
			<stop offset="0" stop-color="#000000" stop-opacity="0"/>
			<stop offset=".9" stop-color="#000000" stop-opacity=".8"/>
			<stop offset="1" stop-color="#000000"/>
		</linearGradient>
	</defs>
	<style>
		.s0 { opacity: .2;fill: #68e1fd } 
		.s1 { fill: #68e1fd } 
		.s2 { opacity: .6;fill: url(#g1) } 
		.s3 { fill: url(#g2) } 
		.s4 { fill: #ffffff } 
		.s5 { fill: url(#g3) } 
		.s6 { fill: url(#g4) } 
		.s7 { fill: url(#g5) } 
		.s8 { opacity: .1;fill: #000405 } 
		.s9 { opacity: .2;fill: #ffffff } 
	</style>
	<path id="Layer" class="s0" d="m329 81.1c49.2-17.4 105.4-25.6 154.1-0.4 23.7 12.1 40.9 35.9 66 44.4 285.3 96.9 272.8 315.6 86.9 314.3-20.6-0.1-35.5 20.9-51.3 34.2l-98.7 82.4c-14.9 12.4-30.1 25-48 32.3-24.8 10.2-52.6 9.4-79.3 7.6-38.5-2.6-79.1-7.9-109.2-32-20.6-16.5-34.2-40.3-53.5-58.2-30.6-28.4-73.1-40.1-107.1-64.2-72.5-51.2-109.8-151.5-76.8-233.8 7.8-19.5 33.5-43.5 50-56.5 19.6-15.4 44.9-21 69.2-26.2 64.8-13.8 135.2-21.8 197.7-43.9z"/>
	<path id="Layer" class="s1" d="m617.3 200.6v260.5c0 3.3-0.6 6.5-1.9 9.6-1.2 3-3 5.7-5.4 8-2.3 2.3-5 4.2-8 5.4-3 1.3-6.3 1.9-9.5 1.9h-389.7c-3.3 0-6.5-0.6-9.5-1.9-3.1-1.2-5.8-3.1-8.1-5.4-2.3-2.3-4.1-5-5.4-8-1.2-3.1-1.9-6.3-1.9-9.6v-260.5c0-3.3 0.6-6.5 1.9-9.5 1.2-3 3.1-5.8 5.4-8.1 2.3-2.3 5-4.1 8-5.4 3-1.2 6.3-1.9 9.5-1.9h389.8c3.2 0 6.5 0.7 9.5 1.9 3 1.3 5.7 3.1 8 5.4 2.4 2.3 4.2 5.1 5.4 8.1 1.3 3 1.9 6.2 1.9 9.5z"/>
	<path id="Layer" class="s1" d="m610.6 183.7h-426.6l3.5-2.7q0 0 0.1-0.1 0 0 0.1-0.1 0.1 0 0.1-0.1 0.1 0 0.2-0.1l202.9-155.5 6.4-4.9 206.5 158.2z"/>
	<path id="Layer" class="s1" d="m617.3 200.6l-5.2 3.7-37.7 27.4-183.5 132.9-176.5-135.9-36.5-28.1 0.5-4.8q0.3-1.7 0.9-3.4 0.5-1.6 1.3-3.1 0.8-1.6 1.8-3 1-1.4 2.2-2.6 0.3-0.4 0.6-0.7 0.4-0.4 0.7-0.7 0.4-0.3 0.8-0.7 0.4-0.3 0.7-0.6 0.1 0 0.2-0.1 0 0 0.1-0.1 0 0 0.1-0.1 0.1 0 0.1-0.1 1.6-1.2 3.4-2.1 1.8-0.9 3.7-1.5 1.8-0.7 3.8-1 2-0.3 4-0.3h389.7c3 0 6.1 0.6 8.9 1.7 2.9 1.1 5.5 2.7 7.8 4.8 2.2 2 4.1 4.5 5.5 7.2 1.4 2.8 2.2 5.7 2.5 8.8q0.1 1.2 0.1 2.4z"/>
	<path id="Layer" class="s2" d="m187.4 181q-0.3 0.3-0.7 0.6-0.4 0.3-0.8 0.7-0.3 0.3-0.7 0.6-0.3 0.4-0.6 0.7l-0.6 0.1z"/>
	<path id="Layer" class="s3" d="m617.3 200.6l-5.2 3.8-37.7 27.3-183.5 132.9-176.5-135.9-36.5-28.1 0.5-4.8q0.4-2.2 1.2-4.3 0.8-2 2-3.9 1.1-1.9 2.6-3.6 1.5-1.6 3.2-3l0.5-0.4 203-155.5 6.4-4.9 206.5 158.2q2.8 1.5 5.1 3.5 2.4 2.1 4.1 4.7 1.8 2.6 2.8 5.5 1.1 3 1.4 6.1 0 0.3 0.1 0.6 0 0.3 0 0.6 0 0.3 0 0.6 0 0.3 0 0.6z"/>
	<path id="Layer" class="s4" d="m574.4 181.3v50.4l-67.8 49-15.5 11.3-100.2 72.6-94.3-72.6-14.6-11.2-67.6-52v-47.5c0-1.9 0.4-3.8 1.1-5.6 0.8-1.8 1.9-3.4 3.2-4.8 1.4-1.4 3-2.5 4.8-3.2 1.8-0.7 3.7-1.1 5.7-1.1h330.4c1.9 0 3.8 0.4 5.6 1.1 1.8 0.7 3.5 1.8 4.8 3.2 1.4 1.4 2.5 3 3.2 4.8 0.8 1.8 1.1 3.7 1.2 5.6z"/>
	<path id="Layer" class="s5" d="m524.7 225.5h-267q-1.1 0-2.1-0.4-1.1-0.4-1.8-1.2-0.8-0.8-1.3-1.9-0.4-1-0.4-2.1 0-1.1 0.4-2.2 0.5-1 1.3-1.8 0.7-0.8 1.8-1.2 1-0.4 2.1-0.4h267q1.1 0 2.2 0.4 1 0.4 1.8 1.2 0.8 0.8 1.2 1.8 0.4 1.1 0.4 2.2 0 1.1-0.4 2.1-0.4 1.1-1.2 1.9-0.8 0.8-1.8 1.2-1.1 0.4-2.2 0.4z"/>
	<path id="Layer" class="s6" d="m524.7 258.8h-267q-1.1 0-2.1-0.5-1.1-0.4-1.8-1.2-0.8-0.8-1.3-1.8-0.4-1-0.4-2.2 0-1.1 0.4-2.1 0.5-1 1.3-1.8 0.7-0.8 1.8-1.3 1-0.4 2.1-0.4h267q1.1 0 2.2 0.4 1 0.5 1.8 1.3 0.8 0.8 1.2 1.8 0.4 1 0.4 2.1 0 1.2-0.4 2.2-0.4 1-1.2 1.8-0.8 0.8-1.8 1.2-1.1 0.5-2.2 0.5z"/>
	<path id="Layer" class="s7" d="m506.6 280.8l-15.5 11.2h-194.5l-14.6-11.2h224.6z"/>
	<path id="Layer" class="s8" d="m390.9 364.6l166.2 121.4h-329.1l162.9-121.4z"/>
	<path id="Layer" class="s1" d="m250.4 90.2c-8.2-17.6-39-14.7-39-14.7 19-11.2 15.4-39.7 15.1-41.4 8.3 24.9 37 19.4 39.6 18.8-19 4.7-15.7 37.3-15.7 37.3z"/>
	<path id="Layer" class="s1" d="m197 126.3c-5.2-11.2-24.8-9.3-24.8-9.3 12.4-7.4 9.6-26.4 9.6-26.4v0.1c5.3 15.7 23.5 12.2 25.1 11.9-12 3-9.9 23.7-9.9 23.7z"/>
	<path id="Layer" class="s9" d="m215.8 74.1l-4.4 1.4c19-11.2 15.4-39.7 15.2-41.4 0.3 1.4 4.7 20.2 2.3 26.4-3.1 7.7-13.1 13.6-13.1 13.6z"/>
	<path id="Layer" class="s9" d="m184.4 108.4c-2.3 3.2-11.5 8.2-12.2 8.5 12.4-7.3 9.6-26.3 9.6-26.3v0.1c0.5 1.3 4.9 14.6 2.6 17.7z"/>
	<path id="Layer" class="s9" d="m178.7 214.3l-0.8-13.7 213 164-8.6 6.4-203.6-156.7z"/>
	<path id="Layer" class="s9" d="m397.6 371l-6.7-5 226.4-164v10.8l-219.7 158.2z"/>
	<path id="Layer" class="s9" d="m617.2 199.6l-0.6 1.7-4.5 4.5c3.2-5.4-5.7-18-5.7-18l-3.5-2.7-10.7-8-201.3-150.6 6.4-4.9 206.5 158.3q2.8 1.4 5.1 3.5 2.4 2 4.1 4.6 1.8 2.6 2.8 5.6 1.1 2.9 1.4 6z"/>
</svg>