<svg id="Layer_1" data-name="Layer 1" xmlns="http://www.w3.org/2000/svg" viewBox="0 0 400 300" width="406" height="306" class="illustration styles_illustrationTablet__1DWOa"><title>_</title><path d="M115.63,77.57C86.49,86.68,63.51,108.12,60,147.67c-3,33.33,8.38,94.6,56.19,109,74.66,22.49,204.57,12.7,218.79-44.72,9.63-38.92,12.6-108.62-41.5-130.31C256.76,66.94,178.1,58.06,115.63,77.57Z" fill="#e6e6e6" opacity="0.3"></path><path d="M258.1,86.93,270,101.49a6.58,6.58,0,0,0,10.72-.75l5.45-8.4,4.48,3.29s-4.37,12-12.08,18.49S251.42,99.9,251.42,99.9Z" fill="#02dede"></path><path d="M258.1,86.93,270,101.49a6.58,6.58,0,0,0,10.72-.75l5.45-8.4,4.48,3.29s-4.37,12-12.08,18.49S251.42,99.9,251.42,99.9Z" opacity="0.09"></path><path d="M260.15,72.25a22.7,22.7,0,0,1-1.37,6,1.85,1.85,0,0,1-2.45.91,4.08,4.08,0,0,1-2.59-3.59l-.52-3.35A3.31,3.31,0,0,1,255.28,69C257.58,67.86,260.47,70,260.15,72.25Z" fill="#f4a28c"></path><polygon points="253.32 72.78 249.35 84.14 255.77 85.88 256.08 76.92 253.32 72.78" fill="#f4a28c"></polygon><path d="M259.82,74.55l.76,1.57a.58.58,0,0,1-.52.84h-1.43Z" fill="#f4a28c"></path><path d="M256.09,78.88a4.31,4.31,0,0,1-1.88-1.64A6.88,6.88,0,0,0,255.9,82Z" fill="#ce8172" opacity="0.31"></path><path d="M252.06,76.38l2.21.2s2.74-2,2.57-4.93c0,0,2.22,1.88,4.2.38s.94-4.68-1.45-5.69S250.16,64.21,252.06,76.38Z" fill="#ffd200"></path><path d="M249.35,84.15l6.42,1.73s12,6,12.21,18-15.67,28.66-15.67,28.66l-20.69-9.12S226.18,83.75,249.35,84.15Z" fill="#02dede"></path><path d="M287.35,93.24s1-4.28,4.3-4.1-1.43,6.21-1.43,6.21Z" fill="#f4a28c"></path><path d="M249,90.9l-1.69-48.56-5.37-.88s-8.55,33.47-6.69,50.81S249,97.64,249,90.9Z" fill="#02dede"></path><path d="M249,90.9l-1.69-48.56-5.37-.88s-8.55,33.47-6.69,50.81S249,97.64,249,90.9Z" fill="#fff" opacity="0.46"></path><path d="M246.47,42.27s2.33-3.54.32-5.12-3.28-2-3.93-.11a11.67,11.67,0,0,0-.33,4.47Z" fill="#f4a28c"></path><path d="M145.12,71.67a21.18,21.18,0,0,0,.09,5.68,1.71,1.71,0,0,0,2.06,1.31,3.79,3.79,0,0,0,3.06-2.76l1.12-3a3.07,3.07,0,0,0-1.25-3.33C148.32,68.17,145.26,69.58,145.12,71.67Z" fill="#f4a28c"></path><polygon points="151.25 73.48 152.65 84.61 146.46 84.95 147.93 76.71 151.25 73.48" fill="#f4a28c"></polygon><path d="M148.66,74.72s.07-1.32,1.05-1.19.9,2-.45,2.17Z" fill="#f4a28c"></path><path d="M145,73.82l-1,1.29a.55.55,0,0,0,.31.87l1.3.29Z" fill="#f4a28c"></path><path d="M146.46,85S137,86.4,134.19,74.4s9.87-21,9.87-21,6.39-1.69,3.36-5.09-7,2.59-7,2.59-19.2,8.85-15.34,25.83S139.5,99.13,139.5,99.13Z" fill="#f4a28c"></path><path d="M147.53,78.5a4,4,0,0,0,2-1.13,6.44,6.44,0,0,1-2.48,4Z" fill="#ce8172" opacity="0.31"></path><path d="M138.47,89.87s-12.65,13.28-3.24,21.28,13.89,12.53,13.89,12.53l17.5-5.52s-.77-14.24,2-22.4-1.85-12.85-6.56-13.05S150.28,80.06,138.47,89.87Z" fill="#02dede"></path><path d="M151.22,82.86s-6.78,9.11-.95,16.31,8.16,21.58,8.16,21.58l8.19-2.59s-.39-13.38,1.13-19a52.05,52.05,0,0,0,1.73-7.31c.24-2.45-9.73-10.73-9.73-10.73Z" opacity="0.09"></path><path d="M163.83,97.78c-6.29,4.29-13.14-4.63-7.55-9.8a39.57,39.57,0,0,1,5-4c6.29-4.14,13.09-21.61,5-30.72,0,0-4.63-5.51-1-7.31s4.29,6.37,4.29,6.37S182.9,66.49,176.3,79.9C172.72,87.15,168.61,94.52,163.83,97.78Z" fill="#f4a28c"></path><path d="M148.23,72.61s.07,12.14,7.9,11.9,9.65-4.06,10.78-7.19S154.27,80.64,153.68,72s-7.72-6.75-9.55-3.85S148.23,72.61,148.23,72.61Z" fill="#24285b"></path><path d="M188.12,35.83c.38.32,1.6-1.19,1.76-1.52a6,6,0,0,0,.84-3.87c-.21-.82-1.05-2.07-2-2.1a2.89,2.89,0,0,0-2.39,1.9,23.1,23.1,0,0,0-1.09,2.31c-.25.72.13,1,.67,1.45C186.64,34.62,187.38,35.22,188.12,35.83Z" fill="#f4a28c"></path><path d="M186.84,75.92s-1.68-23.2,2.86-39.8l-4.46-3.57s-12.91,29.87-8,60.17Z" fill="#02dede"></path><path d="M222.53,43.05c-.48.3-1.26-1.52-1.33-1.78-.39-1.42-1.33-3-.41-4.47a2.92,2.92,0,0,1,2.43-1.22c1,.2,1.6,1.3,1.88,2.19a21.48,21.48,0,0,1,.76,2.44c.14.76-.27,1-.87,1.34Z" fill="#f4a28c"></path><path d="M218.05,82.9s5-22.71,2.87-39.79l4.94-2.9s8.48,31.41-.69,60.7Z" fill="#02dede"></path><path d="M186.84,75.92s-1.68-23.2,2.86-39.8l-4.46-3.57s-12.91,29.87-8,60.17Z" fill="#fff" opacity="0.46"></path><path d="M218.05,82.9s5-22.71,2.87-39.79l4.94-2.9s8.48,31.41-.69,60.7Z" fill="#fff" opacity="0.46"></path><path d="M225.87,94.87c-1.89,20-12.58,36.71-12.58,36.71l-25.74-1.46s-28-55.06,8-55.85h1.59l5.55,0a33.44,33.44,0,0,1,4.82.58h0c.8.15,1.66.34,2.57.57a32.25,32.25,0,0,1,3.81,1.23C220.3,79.14,226.87,84.29,225.87,94.87Z" fill="#02dede"></path><polygon points="214.69 137.82 213.28 131.58 187.54 130.12 186.84 137.82 214.69 137.82" fill="#24285b"></polygon><path d="M213.91,76.63c-.6,3.87-2.1,7.86-5.65,9.48-7.8,3.55-8.79-4.16-8.79-4.16-1-1.56,0-4.52,1.59-7.38l5.55.17s.32,0,.89.09h0c.8.15,1.66.34,2.57.57A32.25,32.25,0,0,1,213.91,76.63Z" opacity="0.08"></path><path d="M198.17,73.23a28.4,28.4,0,0,1,.68,3.3c.21,1.52.94,3.75,3.4,3.94,3.8.3,4.17-5.69,4.17-5.69s1.77-5.77-2.34-6.11C200.37,68.37,196.9,68.24,198.17,73.23Z" fill="#f4a28c"></path><path d="M206.21,75s0-1.81,1.6-1.9S209.11,76.46,206.21,75Z" fill="#f4a28c"></path><path d="M199.24,74.76s.37-1.77-1.15-2.2S196.1,75.52,199.24,74.76Z" fill="#f4a28c"></path><path d="M198.17,73.23s-6.13-.23-3.89-5,3.18-1.46,4.09-5,2-4.36,4-3.09.53,4.54,3.27,3.38,4.58-2.17,5.36.12.37,3.46-1.37,4.45,1.45,3.85-3,5.61-7.34-3-7.34-3Z" fill="#24285b"></path><path d="M272.16,115.48v58.16a53.73,53.73,0,0,1-53.8,53.8H181.6a53.78,53.78,0,0,1-53.8-53.8V115.48Z" fill="#ffd200"></path><rect x="186.4" y="213.15" width="27.15" height="51.06" fill="#ffd200"></rect><rect x="155.91" y="254.76" width="88.13" height="16.9" fill="#24285b"></rect><path d="M128.53,182.49h-8.61a25.07,25.07,0,0,1,0-50.13h7.88v-10h-7.88a35.07,35.07,0,0,0,0,70.13h11.27A53.71,53.71,0,0,1,128.53,182.49Z" fill="#ffd200"></path><path d="M280,122.36h-7.88v10H280a25.07,25.07,0,0,1,0,50.13h-8.61a53.71,53.71,0,0,1-2.66,10H280a35.07,35.07,0,0,0,0-70.13Z" fill="#ffd200"></path><path d="M140.55,182.55c.47,4.67,1,9.4,2.71,13.79a29.35,29.35,0,0,0,23.43,18.32c2.68.32,6.18-.33,6.7-3,.37-1.86-1-3.56-2.25-5-11.08-13.51-11.8-32.64-10.12-50,.53-5.48,1.24-11,.64-16.47s-2.7-11-6.89-14.56c-2.91-2.48-8.21-4.74-11.59-1.93a10.35,10.35,0,0,0-2.9,4.7c-1.53,4.51-1.5,9.26-1.22,14,.22,3.66-.57,7.08-.46,10.77Q139.07,167.85,140.55,182.55Z" fill="#fff" opacity="0.3"></path><rect x="105.39" y="211.95" width="19.77" height="5.56" transform="translate(55.1 -21.44) rotate(13.93)" fill="#f2f2f2"></rect><rect x="148.81" y="235.9" width="19.77" height="5.56" transform="translate(-38.48 30.66) rotate(-9.85)" fill="#f2f2f2"></rect><rect x="255.35" y="229.04" width="19.77" height="5.56" transform="translate(-75.05 140.73) rotate(-26.17)" fill="#f2f2f2"></rect><rect x="106.47" y="103.37" width="11.53" height="3.24" transform="translate(-34.8 60.25) rotate(-26.17)" fill="#f2f2f2"></rect><rect x="96.12" y="74.44" width="11.53" height="3.24" transform="translate(17.46 -19.01) rotate(11.65)" fill="#f2f2f2"></rect><rect x="294.84" y="110" width="11.53" height="3.24" transform="translate(28.74 -58.42) rotate(11.65)" fill="#f2f2f2"></rect><rect x="274.02" y="71.16" width="11.53" height="3.24" transform="translate(5.93 165.41) rotate(-33.27)" fill="#f2f2f2"></rect><rect x="282.91" y="203.05" width="19.77" height="5.56" transform="translate(-6.67 9.83) rotate(-1.9)" fill="#f2f2f2"></rect><path d="M201.61,140.65,209.19,156a1.81,1.81,0,0,0,1.35,1l16.94,2.46a1.8,1.8,0,0,1,1,3.07l-12.26,11.94a1.83,1.83,0,0,0-.52,1.6l2.9,16.86a1.8,1.8,0,0,1-2.61,1.9l-15.15-8a1.78,1.78,0,0,0-1.68,0l-15.15,8a1.8,1.8,0,0,1-2.61-1.9l2.9-16.86a1.83,1.83,0,0,0-.52-1.6l-12.26-11.94a1.8,1.8,0,0,1,1-3.07L189.46,157a1.81,1.81,0,0,0,1.35-1l7.58-15.35A1.79,1.79,0,0,1,201.61,140.65Z" fill="#fff" opacity="0.43"></path></svg>